<svg width="40" height="40" viewBox="0 0 40 40" fill="none" xmlns="http://www.w3.org/2000/svg">
    <path d="M 9.875 0 L 9.875 17.734375 L 9.101562 19.019531 C 9.101562 19.050781 8.878906 17.96875 8.878906 17.96875 C 8.609375 16.675781 7.726562 15.410156 6.402344 15.410156 L 3.898438 15.410156 C 2.71875 15.410156 1.789062 16.835938 1.597656 17.730469 L 0.398438 23.789062 L 2.003906 23.789062 L 2.972656 18.910156 L 3.367188 18.910156 L 3.398438 23.789062 L 7.113281 23.789062 L 7.078125 18.910156 L 7.492188 18.910156 L 8.035156 21.300781 C 8.292969 22.3125 8.9375 22.546875 9.433594 21.683594 L 11.402344 18.398438 C 11.46875 18.28125 11.515625 18.160156 11.542969 18.042969 L 36 18.042969 L 36 0 Z M 10.328125 0.601562 L 35.550781 0.601562 L 35.550781 17.441406 L 11.542969 17.441406 C 11.480469 17.179688 11.335938 16.96875 11.15625 16.847656 L 15.574219 10.433594 L 15.75 10.664062 L 11.449219 16.914062 L 35.117188 16.914062 L 35.117188 1.128906 L 10.757812 1.128906 L 10.757812 16.746094 C 10.609375 16.765625 10.460938 16.847656 10.324219 17.011719 Z M 5.1875 9.785156 C 4.179688 9.785156 3.359375 10.917969 3.359375 12.3125 C 3.359375 13.707031 4.179688 14.835938 5.1875 14.835938 C 6.195312 14.835938 7.015625 13.707031 7.015625 12.3125 C 7.015625 10.917969 6.195312 9.785156 5.1875 9.785156 Z M 0 24.367188 L 0 25.523438 L 9.847656 25.523438 L 9.847656 24.367188 Z M 0 25.746094 L 0 26.398438 L 8.273438 26.398438 L 8.273438 35.285156 L 0 35.285156 L 0 36 L 8.765625 36 L 8.765625 25.746094 Z M 0 26.492188 L 0 35.171875 L 8.144531 35.171875 L 8.144531 26.492188 Z M 0 26.492188 "
          fill="url(#paint0_linear)"/>
    <defs>
        <linearGradient id="paint0_linear" x1="2.94192" y1="4.89955" x2="37.7772" y2="39.7345"
                        gradientUnits="userSpaceOnUse">
            <stop offset="0.15937" stop-color="#3BEA62"/>
            <stop offset="0.5404" stop-color="#3C99CC"/>
            <stop offset="0.93739" stop-color="#6B57FF"/>
        </linearGradient>
    </defs>
</svg>